# xmcd
#
# Track frame offsets: 
#        150
#        17232
#        27678
#        44164
#        52880
#        69072
#        87513
#        96431
#        109408
#        123357
#        135723
#        155892
#        167954
#
# Disc length: 2400 seconds
#
# Revision: 0
# Processed by: cddbd v1.5.2PL0 Copyright (c) Steve Scherf et al.
# Submitted via: ExactAudioCopy v1.3
#
DISCID=bf095e0d
DTITLE=Řidič tvrdý chleba má - Zelenáči
DYEAR=1979
DGENRE=Country
TTITLE0=Řidič tvrdý chleba má
TTITLE1=Blues prázdného motelu
TTITLE2=Cítím vůni vlasů tvých
TTITLE3=Psí píseň
TTITLE4=Dívka, co se smála jak Chaplinův Kid
TTITLE5=Cadillac
TTITLE6=Dělová koule
TTITLE7=Toulám se zas dál
TTITLE8=Zbyl mi jen tvůj mokasín
TTITLE9=Fidlací song
TTITLE10=To je jen babí léto
TTITLE11=Rozmarná kráska
TTITLE12=Jó, to byl den
EXTD=
EXTT0=
EXTT1=
EXTT2=
EXTT3=
EXTT4=
EXTT5=
EXTT6=
EXTT7=
EXTT8=
EXTT9=
EXTT10=
EXTT11=
EXTT12=
PLAYORDER=
